<?xml version="1.0" encoding="UTF-8" standalone="no"?>
<!-- Created with Inkscape (http://www.inkscape.org/) -->

<svg
   xmlns:dc="http://purl.org/dc/elements/1.1/"
   xmlns:cc="http://creativecommons.org/ns#"
   xmlns:rdf="http://www.w3.org/1999/02/22-rdf-syntax-ns#"
   xmlns:svg="http://www.w3.org/2000/svg"
   xmlns="http://www.w3.org/2000/svg"
   xmlns:sodipodi="http://sodipodi.sourceforge.net/DTD/sodipodi-0.dtd"
   xmlns:inkscape="http://www.inkscape.org/namespaces/inkscape"
   width="64px"
   height="64px"
   id="svg2985"
   version="1.1"
   inkscape:version="0.48.5 r"
   sodipodi:docname="duck.svg">
  <defs
     id="defs2987" />
  <sodipodi:namedview
     id="base"
     pagecolor="#ffffff"
     bordercolor="#666666"
     borderopacity="1.0"
     inkscape:pageopacity="0.0"
     inkscape:pageshadow="2"
     inkscape:zoom="7.7781746"
     inkscape:cx="30.260169"
     inkscape:cy="22.812494"
     inkscape:current-layer="layer1"
     showgrid="true"
     inkscape:document-units="px"
     inkscape:grid-bbox="true"
     inkscape:window-width="1149"
     inkscape:window-height="879"
     inkscape:window-x="88"
     inkscape:window-y="84"
     inkscape:window-maximized="0" />
  <metadata
     id="metadata2990">
    <rdf:RDF>
      <cc:Work
         rdf:about="">
        <dc:format>image/svg+xml</dc:format>
        <dc:type
           rdf:resource="http://purl.org/dc/dcmitype/StillImage" />
        <dc:title />
      </cc:Work>
    </rdf:RDF>
  </metadata>
  <g
     inkscape:groupmode="layer"
     id="layer4"
     inkscape:label="bg4"
     style="display:inline" />
  <g
     inkscape:groupmode="layer"
     id="layer3"
     inkscape:label="bg3"
     style="display:inline;opacity:0.6" />
  <g
     inkscape:groupmode="layer"
     id="layer2"
     inkscape:label="bg2"
     style="display:inline" />
  <g
     inkscape:groupmode="layer"
     inkscape:label="bg"
     id="g3836"
     style="opacity:0.2;display:inline" />
  <g
     id="layer1"
     inkscape:label="Layer 1"
     inkscape:groupmode="layer"
     style="display:inline">
    <path
       style="fill:#ffffff;fill-opacity:1;stroke:none"
       d="M 31.023866,5.1555739 C 18.782682,5.6000096 10.754735,12.71283 7.7960718,17.091653 c -3.15591,4.670746 -7.28402421,18.420539 -0.2147892,28.0145 7.0692354,9.593963 16.4958584,11.86421 19.1468234,12.242919 2.650962,0.378709 6.106116,0.490945 6.106116,0.490945 2.556286,-0.04735 17.011502,-2.94874 22.644798,-11.690608 C 61.112318,37.407542 61.705954,27.452913 58.455369,21.72494 55.204783,15.996965 47.189259,5.6763009 33.539955,5.1555739 c -0.853082,-0.032539 -1.700012,-0.029621 -2.516089,0 z m -0.920521,2.7922457 c 3.64448,-0.1114331 7.479443,0.458788 11.690607,1.6876201 9.625522,2.8087573 14.34349,13.3371563 14.943113,15.9249993 0.599623,2.587845 2.174784,9.748285 -3.221821,17.82741 -5.396605,8.079126 -14.613577,11.211913 -16.538682,10.770086 -1.925103,-0.441826 -1.464899,-6.406126 -0.644363,-9.972301 0.820537,-3.566178 2.420591,-4.805139 3.651397,-5.246967 1.230805,-0.441828 5.842324,-0.574244 7.609635,-0.889836 1.767307,-0.315592 4.379118,-1.896396 5.799276,-4.326445 1.420162,-2.430048 1.494711,-4.42993 0.705732,-5.124229 -0.788976,-0.694299 -3.147551,0.68998 -8.039208,1.258043 -4.891659,0.568064 -7.010888,-0.369136 -7.578952,-1.442148 -0.568062,-1.073007 1.217737,-2.431149 1.564885,-4.387815 0.34715,-1.956659 -4.447487,-5.941318 -5.615174,-6.351588 -1.167685,-0.410267 -4.850105,-0.672309 -10.309827,1.442149 -5.459721,2.11446 -8.260941,8.298035 -6.903902,12.242921 1.357041,3.944884 7.771919,11.672327 9.665463,14.268062 1.893546,2.595734 2.452099,5.700252 2.546774,6.505008 0.09467,0.804758 -0.323525,2.506465 -0.82847,2.853614 0,0 -0.72154,0.214788 -1.258044,0.214788 -0.536505,0 -4.649149,-1.584192 -6.29022,-1.99446 C 19.41049,52.796464 9.7772345,46.258513 6.936918,36.790786 4.0966016,27.323062 8.7432949,16.419004 16.633067,11.906056 21.071062,9.367521 25.417585,8.091083 30.103345,7.9478196 z m 6.320907,19.0547684 -3.59003,1.411464 c 0,0 1.102028,-0.757474 1.748987,-1.104626 0.646963,-0.347149 1.841043,-0.306838 1.841043,-0.306838 z"
       id="path3060"
       inkscape:connector-curvature="0" />
  </g>
</svg>
