<?xml version="1.0" encoding="UTF-8" standalone="no"?>
<!-- Created with Inkscape (http://www.inkscape.org/) -->

<svg
   xmlns:dc="http://purl.org/dc/elements/1.1/"
   xmlns:cc="http://creativecommons.org/ns#"
   xmlns:rdf="http://www.w3.org/1999/02/22-rdf-syntax-ns#"
   xmlns:svg="http://www.w3.org/2000/svg"
   xmlns="http://www.w3.org/2000/svg"
   xmlns:sodipodi="http://sodipodi.sourceforge.net/DTD/sodipodi-0.dtd"
   xmlns:inkscape="http://www.inkscape.org/namespaces/inkscape"
   width="50"
   height="50"
   id="svg3024"
   version="1.1"
   inkscape:version="0.48.5 r"
   sodipodi:docname="logo.svg">
  <defs
     id="defs3026" />
  <sodipodi:namedview
     id="base"
     pagecolor="#ffffff"
     bordercolor="#666666"
     borderopacity="1.0"
     inkscape:pageopacity="0.0"
     inkscape:pageshadow="2"
     inkscape:zoom="11.2"
     inkscape:cx="5.9806433"
     inkscape:cy="25.345378"
     inkscape:document-units="px"
     inkscape:current-layer="layer1"
     showgrid="true"
     inkscape:window-width="1245"
     inkscape:window-height="991"
     inkscape:window-x="35"
     inkscape:window-y="0"
     inkscape:window-maximized="1">
    <inkscape:grid
       type="xygrid"
       id="grid3039"
       empspacing="5"
       visible="true"
       enabled="true"
       snapvisiblegridlinesonly="true" />
    <sodipodi:guide
       position="0,0"
       orientation="0,50"
       id="guide3041" />
    <sodipodi:guide
       position="50,0"
       orientation="-50,0"
       id="guide3043" />
    <sodipodi:guide
       position="50,50"
       orientation="0,-50"
       id="guide3045" />
    <sodipodi:guide
       position="0,50"
       orientation="50,0"
       id="guide3047" />
  </sodipodi:namedview>
  <metadata
     id="metadata3029">
    <rdf:RDF>
      <cc:Work
         rdf:about="">
        <dc:format>image/svg+xml</dc:format>
        <dc:type
           rdf:resource="http://purl.org/dc/dcmitype/StillImage" />
        <dc:title />
      </cc:Work>
    </rdf:RDF>
  </metadata>
  <g
     inkscape:label="Layer 1"
     inkscape:groupmode="layer"
     id="layer1"
     transform="translate(0,-1002.3622)">
    <path
       d="m 16.737279,1043.6897 c 0.574976,1.1586 1.785325,1.8692 3.005073,2.297 2.260682,0.7363 4.707188,0.7789 7.061658,0.5357 1.670464,-0.2031 3.408917,-0.5854 4.737668,-1.6325 0.944838,-0.7161 1.535656,-1.8161 1.639986,-2.9614 0.1348,-0.8013 -0.08441,-1.6991 -0.74907,-2.2401 -0.605471,-0.4788 -1.39557,-0.7331 -2.178637,-0.7364 -4.166776,0 -8.332969,0.022 -12.499754,0.02 -1.359826,1.1412 -1.821098,3.1585 -1.016924,4.7187 l 0,0 z m 6.949118,-35.5926 c -0.895006,0.1675 -1.731429,0.6852 -2.182143,1.4558 -0.799486,1.2684 -0.910844,2.7945 -0.871585,4.2413 0.038,1.6636 -0.09504,3.3358 0.111928,4.9934 0.116153,1.0078 0.581438,2.0598 1.522756,2.604 1.004043,0.5395 2.216166,0.6169 3.335072,0.4344 1.226758,-0.2297 2.124722,-1.2613 2.462324,-2.3703 0.364571,-1.0524 0.379226,-2.1716 0.346401,-3.2686 -0.05335,-1.6921 0.117229,-3.4073 -0.24793,-5.0774 -0.206329,-0.8188 -0.536894,-1.6615 -1.219153,-2.2262 -0.86394,-0.757 -2.131732,-0.9633 -3.257691,-0.7864 l 0,0 z m -5.630936,-2.6777 c 2.798193,-0.9028 5.826706,-1.3852 8.764366,-0.896 1.844551,0.2713 3.617587,0.8514 5.411724,1.3252 0.281927,0.068 0.576749,0.022 0.862195,-0.022 2.778245,-0.4926 5.55473,-0.9992 8.340593,-1.4643 0.01288,2.0356 0.06623,4.0731 0.09145,6.1108 -2.061411,-0.5373 -4.128684,-1.0624 -6.195956,-1.5842 1.842787,1.4505 3.178571,3.5635 3.407161,5.8568 0.254965,2.6949 -0.677564,5.5509 -2.765936,7.4274 -1.947117,1.7834 -4.526078,2.7721 -7.124966,3.3196 -2.016875,0.3917 -4.098198,0.6319 -6.149659,0.3588 -1.282448,-0.111 -2.526798,-0.4392 -3.789311,-0.659 -1.152906,0.7241 -1.510444,2.334 -0.810025,3.4535 0.461274,0.6473 1.289482,0.9973 2.10126,0.9563 4.487997,-0.02 8.978309,0.02 13.466289,-0.02 2.403121,0 4.941056,0.6924 6.639653,2.3915 1.38502,1.3233 2.040309,3.1928 2.211459,5.0243 0.308889,2.8994 -0.335852,5.9995 -2.275933,8.3082 -1.801169,2.1441 -4.479187,3.4277 -7.208784,4.1436 -4.351995,1.1208 -8.930242,1.1265 -13.385971,0.7126 -3.036728,-0.366 -6.120931,-0.9441 -8.825337,-2.376 -1.3310843,-0.7089 -2.5666491,-1.7542 -3.0842026,-3.1602 -0.6013734,-1.6978 0.059766,-3.6269 1.3908919,-4.8373 1.6593097,-1.5378 3.9200137,-2.3136 6.1508147,-2.7325 -1.790626,-0.5267 -3.577724,-1.4967 -4.509667,-3.1085 -0.9483518,-1.686 -0.574996,-3.7922 0.474175,-5.3508 1.192779,-1.7938 2.855616,-3.2993 4.750566,-4.4026 -2.293522,-1.1895 -4.210162,-3.107 -5.093447,-5.476 -0.9501044,-2.5973 -0.774271,-5.5582 0.459519,-8.0418 1.304137,-2.5836 3.918854,-4.3362 6.69709,-5.2564 l 0,0"
       style="fill:#005689;fill-opacity:1;fill-rule:nonzero;stroke:none"
       id="path36"
       inkscape:connector-curvature="0" />
  </g>
</svg>
